# Blender v2.63 (sub 0) OBJ File: ''
# www.blender.org
o Cylinder
v 0.000000 -1.000000 -1.000000
v 0.000000 1.000000 -1.000000
v 0.195090 -1.000000 -0.980785
v 0.195090 1.000000 -0.980785
v 0.382683 -1.000000 -0.923880
v 0.382683 1.000000 -0.923880
v 0.555570 -1.000000 -0.831470
v 0.555570 1.000000 -0.831470
v 0.707107 -1.000000 -0.707107
v 0.707107 1.000000 -0.707107
v 0.831470 -1.000000 -0.555570
v 0.831470 1.000000 -0.555570
v 0.923880 -1.000000 -0.382683
v 0.923880 1.000000 -0.382683
v 0.980785 -1.000000 -0.195090
v 0.980785 1.000000 -0.195090
v 1.000000 -1.000000 -0.000000
v 1.000000 1.000000 -0.000000
v 0.980785 -1.000000 0.195090
v 0.980785 1.000000 0.195090
v 0.923880 -1.000000 0.382683
v 0.923880 1.000000 0.382683
v 0.831470 -1.000000 0.555570
v 0.831470 1.000000 0.555570
v 0.707107 -1.000000 0.707107
v 0.707107 1.000000 0.707107
v 0.555570 -1.000000 0.831470
v 0.555570 1.000000 0.831470
v 0.382683 -1.000000 0.923880
v 0.382683 1.000000 0.923880
v 0.195090 -1.000000 0.980785
v 0.195090 1.000000 0.980785
v -0.000000 -1.000000 1.000000
v -0.000000 1.000000 1.000000
v -0.195091 -1.000000 0.980785
v -0.195091 1.000000 0.980785
v -0.382684 -1.000000 0.923879
v -0.382684 1.000000 0.923879
v -0.555571 -1.000000 0.831469
v -0.555571 1.000000 0.831469
v -0.707107 -1.000000 0.707106
v -0.707107 1.000000 0.707106
v -0.831470 -1.000000 0.555570
v -0.831470 1.000000 0.555570
v -0.923880 -1.000000 0.382683
v -0.923880 1.000000 0.382683
v -0.980785 -1.000000 0.195089
v -0.980785 1.000000 0.195089
v -1.000000 -1.000000 -0.000001
v -1.000000 1.000000 -0.000001
v -0.980785 -1.000000 -0.195091
v -0.980785 1.000000 -0.195091
v -0.923879 -1.000000 -0.382684
v -0.923879 1.000000 -0.382684
v -0.831469 -1.000000 -0.555571
v -0.831469 1.000000 -0.555571
v -0.707106 -1.000000 -0.707108
v -0.707106 1.000000 -0.707108
v -0.555569 -1.000000 -0.831470
v -0.555569 1.000000 -0.831470
v -0.382682 -1.000000 -0.923880
v -0.382682 1.000000 -0.923880
v -0.195089 -1.000000 -0.980786
v -0.195089 1.000000 -0.980786
vn 0.098017 0.000000 -0.995185
vn 0.290284 0.000000 -0.956940
vn 0.471397 0.000000 -0.881921
vn 0.634393 0.000000 -0.773011
vn 0.773011 0.000000 -0.634393
vn 0.881921 0.000000 -0.471397
vn 0.956940 0.000000 -0.290284
vn 0.995185 0.000000 -0.098017
vn 0.995185 0.000000 0.098017
vn 0.956940 0.000000 0.290285
vn 0.881921 0.000000 0.471396
vn 0.773010 0.000000 0.634393
vn 0.634393 0.000000 0.773010
vn 0.471396 0.000000 0.881921
vn 0.290285 0.000000 0.956940
vn 0.098017 0.000000 0.995185
vn -0.098018 0.000000 0.995185
vn -0.290285 0.000000 0.956940
vn -0.471397 0.000000 0.881921
vn -0.634394 0.000000 0.773010
vn -0.773011 0.000000 0.634393
vn -0.881922 0.000000 0.471396
vn -0.956941 0.000000 0.290284
vn -0.995185 0.000000 0.098016
vn -0.995185 0.000000 -0.098018
vn -0.956940 0.000000 -0.290286
vn -0.881921 0.000000 -0.471398
vn -0.773010 0.000000 -0.634394
vn -0.634392 0.000000 -0.773011
vn -0.471395 0.000000 -0.881922
vn -0.000000 1.000000 0.000000
vn -0.098016 0.000000 -0.995185
vn -0.290283 0.000000 -0.956941
vn 0.000000 -1.000000 -0.000000
c 1 0 0
s off
f 1/1/1 2/1/1 4/1/1
f 1/1/1 4/1/1 3/1/1
f 3/1/2 4/1/2 6/1/2
f 3/1/2 6/1/2 5/1/2
f 5/1/3 6/1/3 8/1/3
f 5/1/3 8/1/3 7/1/3
f 7/1/4 8/1/4 10/1/4
f 7/1/4 10/1/4 9/1/4
f 9/1/5 10/1/5 12/1/5
f 9/1/5 12/1/5 11/1/5
f 11/1/6 12/1/6 14/1/6
f 11/1/6 14/1/6 13/1/6
f 13/1/7 14/1/7 16/1/7
f 13/1/7 16/1/7 15/1/7
f 15/1/8 16/1/8 18/1/8
f 15/1/8 18/1/8 17/1/8
f 17/1/9 18/1/9 20/1/9
f 17/1/9 20/1/9 19/1/9
f 19/1/10 20/1/10 22/1/10
f 19/1/10 22/1/10 21/1/10
f 21/1/11 22/1/11 24/1/11
f 21/1/11 24/1/11 23/1/11
f 23/1/12 24/1/12 26/1/12
f 23/1/12 26/1/12 25/1/12
f 25/1/13 26/1/13 28/1/13
f 25/1/13 28/1/13 27/1/13
f 27/1/14 28/1/14 30/1/14
f 27/1/14 30/1/14 29/1/14
f 29/1/15 30/1/15 32/1/15
f 29/1/15 32/1/15 31/1/15
f 31/1/16 32/1/16 34/1/16
f 31/1/16 34/1/16 33/1/16
f 33/1/17 34/1/17 36/1/17
f 33/1/17 36/1/17 35/1/17
f 35/1/18 36/1/18 38/1/18
f 35/1/18 38/1/18 37/1/18
f 37/1/19 38/1/19 40/1/19
f 37/1/19 40/1/19 39/1/19
f 39/1/20 40/1/20 42/1/20
f 39/1/20 42/1/20 41/1/20
f 41/1/21 42/1/21 44/1/21
f 41/1/21 44/1/21 43/1/21
f 43/1/22 44/1/22 46/1/22
f 43/1/22 46/1/22 45/1/22
f 45/1/23 46/1/23 48/1/23
f 45/1/23 48/1/23 47/1/23
f 47/1/24 48/1/24 50/1/24
f 47/1/24 50/1/24 49/1/24
f 49/1/25 50/1/25 52/1/25
f 49/1/25 52/1/25 51/1/25
f 51/1/26 52/1/26 54/1/26
f 51/1/26 54/1/26 53/1/26
f 53/1/27 54/1/27 56/1/27
f 53/1/27 56/1/27 55/1/27
f 55/1/28 56/1/28 58/1/28
f 55/1/28 58/1/28 57/1/28
f 57/1/29 58/1/29 60/1/29
f 57/1/29 60/1/29 59/1/29
f 59/1/30 60/1/30 62/1/30
f 59/1/30 62/1/30 61/1/30
f 4/1/31 2/1/31 64/1/31
f 4/1/31 64/1/31 62/1/31
f 4/1/31 62/1/31 6/1/31
f 62/1/31 60/1/31 6/1/31
f 60/1/31 8/1/31 6/1/31
f 60/1/31 58/1/31 8/1/31
f 58/1/31 10/1/31 8/1/31
f 58/1/31 56/1/31 10/1/31
f 56/1/31 12/1/31 10/1/31
f 56/1/31 54/1/31 12/1/31
f 54/1/31 14/1/31 12/1/31
f 54/1/31 52/1/31 14/1/31
f 52/1/31 16/1/31 14/1/31
f 52/1/31 50/1/31 16/1/31
f 50/1/31 18/1/31 16/1/31
f 50/1/31 48/1/31 18/1/31
f 48/1/31 20/1/31 18/1/31
f 48/1/31 46/1/31 20/1/31
f 46/1/31 22/1/31 20/1/31
f 46/1/31 44/1/31 22/1/31
f 44/1/31 24/1/31 22/1/31
f 44/1/31 42/1/31 24/1/31
f 42/1/31 26/1/31 24/1/31
f 42/1/31 40/1/31 26/1/31
f 40/1/31 28/1/31 26/1/31
f 40/1/31 38/1/31 28/1/31
f 38/1/31 30/1/31 28/1/31
f 38/1/31 36/1/31 30/1/31
f 36/1/31 32/1/31 30/1/31
f 36/1/31 34/1/31 32/1/31
f 2/1/32 1/1/32 63/1/32
f 2/1/32 63/1/32 64/1/32
f 61/1/33 62/1/33 64/1/33
f 61/1/33 64/1/33 63/1/33
f 1/1/34 3/1/34 63/1/34
f 3/1/34 61/1/34 63/1/34
f 3/1/34 5/1/34 61/1/34
f 5/1/34 59/1/34 61/1/34
f 5/1/34 7/1/34 59/1/34
f 7/1/34 57/1/34 59/1/34
f 7/1/34 9/1/34 57/1/34
f 9/1/34 55/1/34 57/1/34
f 9/1/34 11/1/34 55/1/34
f 11/1/34 53/1/34 55/1/34
f 11/1/34 13/1/34 53/1/34
f 13/1/34 51/1/34 53/1/34
f 13/1/34 15/1/34 51/1/34
f 15/1/34 49/1/34 51/1/34
f 15/1/34 17/1/34 49/1/34
f 17/1/34 47/1/34 49/1/34
f 17/1/34 19/1/34 47/1/34
f 19/1/34 45/1/34 47/1/34
f 19/1/34 21/1/34 45/1/34
f 21/1/34 43/1/34 45/1/34
f 21/1/34 23/1/34 43/1/34
f 23/1/34 41/1/34 43/1/34
f 23/1/34 25/1/34 41/1/34
f 25/1/34 39/1/34 41/1/34
f 25/1/34 27/1/34 39/1/34
f 27/1/34 37/1/34 39/1/34
f 27/1/34 29/1/34 37/1/34
f 29/1/34 35/1/34 37/1/34
f 29/1/34 31/1/34 35/1/34
f 31/1/34 33/1/34 35/1/34
