# Blender v2.63 (sub 0) OBJ File: ''
# www.blender.org
mtllib smoothCyl.mtl
o Cone
c 1 1 1
v 0.000000 -1.000000 -1.000000
v 0.000000 1.000000 0.000000
v 0.195090 -1.000000 -0.980785
v 0.382683 -1.000000 -0.923880
v 0.555570 -1.000000 -0.831470
v 0.707107 -1.000000 -0.707107
v 0.831470 -1.000000 -0.555570
v 0.923880 -1.000000 -0.382683
v 0.980785 -1.000000 -0.195090
v 1.000000 -1.000000 -0.000000
v 0.980785 -1.000000 0.195090
v 0.923880 -1.000000 0.382683
v 0.831470 -1.000000 0.555570
v 0.707107 -1.000000 0.707107
v 0.555570 -1.000000 0.831470
v 0.382683 -1.000000 0.923880
v 0.195090 -1.000000 0.980785
v -0.000000 -1.000000 1.000000
v -0.195091 -1.000000 0.980785
v -0.382684 -1.000000 0.923879
v -0.555571 -1.000000 0.831469
v -0.707107 -1.000000 0.707106
v -0.831470 -1.000000 0.555570
v -0.923880 -1.000000 0.382683
v -0.980785 -1.000000 0.195089
v -1.000000 -1.000000 -0.000001
v -0.980785 -1.000000 -0.195091
v -0.923879 -1.000000 -0.382684
v -0.831469 -1.000000 -0.555571
v -0.707106 -1.000000 -0.707108
v -0.555569 -1.000000 -0.831470
v -0.382682 -1.000000 -0.923880
v -0.195089 -1.000000 -0.980786
vn -0.330699 -0.503250 -0.798334
vn 0.000000 1.000000 0.000000
vn -0.168584 -0.503250 -0.847499
vn 0.000000 -0.503250 -0.864101
vn 0.168523 -0.503250 -0.847499
vn 0.330638 -0.503281 -0.798334
vn -0.480087 -0.503250 -0.718467
vn -0.611011 -0.503250 -0.611011
vn -0.718467 -0.503250 -0.480087
vn -0.798334 -0.503250 -0.330699
vn -0.847499 -0.503250 -0.168584
vn -0.864101 -0.503250 -0.000031
vn -0.847499 -0.503250 0.168523
vn -0.798334 -0.503281 0.330638
vn -0.718497 -0.503281 0.480026
vn -0.611042 -0.503281 0.610981
vn -0.480087 -0.503281 0.718436
vn -0.330699 -0.503281 0.798303
vn -0.168615 -0.503281 0.847499
vn 0.000000 -0.503281 0.864101
vn 0.168554 -0.503281 0.847499
vn 0.330638 -0.503281 0.798334
vn 0.480056 -0.503281 0.718467
vn 0.611011 -0.503281 0.611011
vn 0.718467 -0.503281 0.480056
vn 0.798334 -0.503281 0.330638
vn 0.847499 -0.503281 0.168523
vn 0.864101 -0.503281 -0.000031
vn 0.847499 -0.503281 -0.168615
vn 0.798303 -0.503281 -0.330699
vn 0.718436 -0.503281 -0.480087
vn 0.610981 -0.503281 -0.611042
vn 0.480026 -0.503281 -0.718497
usemtl 
s 1
f 32/1/1 2/1/2 33/1/3
f 1/1/4 2/1/2 3/1/5
f 2/1/2 1/1/4 33/1/3
f 3/1/5 2/1/2 4/1/6
f 31/1/7 2/1/2 32/1/1
f 30/1/8 2/1/2 31/1/7
f 29/1/9 2/1/2 30/1/8
f 28/1/10 2/1/2 29/1/9
f 27/1/11 2/1/2 28/1/10
f 26/1/12 2/1/2 27/1/11
f 25/1/13 2/1/2 26/1/12
f 24/1/14 2/1/2 25/1/13
f 23/1/15 2/1/2 24/1/14
f 22/1/16 2/1/2 23/1/15
f 21/1/17 2/1/2 22/1/16
f 20/1/18 2/1/2 21/1/17
f 19/1/19 2/1/2 20/1/18
f 18/1/20 2/1/2 19/1/19
f 17/1/21 2/1/2 18/1/20
f 16/1/22 2/1/2 17/1/21
f 15/1/23 2/1/2 16/1/22
f 14/1/24 2/1/2 15/1/23
f 13/1/25 2/1/2 14/1/24
f 12/1/26 2/1/2 13/1/25
f 11/1/27 2/1/2 12/1/26
f 10/1/28 2/1/2 11/1/27
f 9/1/29 2/1/2 10/1/28
f 8/1/30 2/1/2 9/1/29
f 7/1/31 2/1/2 8/1/30
f 6/1/32 2/1/2 7/1/31
f 5/1/33 2/1/2 6/1/32
f 4/1/6 2/1/2 5/1/33
f 1/1/4 3/1/5 33/1/3
f 3/1/5 32/1/1 33/1/3
f 3/1/5 4/1/6 32/1/1
f 4/1/6 31/1/7 32/1/1
f 4/1/6 5/1/33 31/1/7
f 5/1/33 30/1/8 31/1/7
f 5/1/33 6/1/32 30/1/8
f 6/1/32 29/1/9 30/1/8
f 6/1/32 7/1/31 29/1/9
f 7/1/31 28/1/10 29/1/9
f 7/1/31 8/1/30 28/1/10
f 8/1/30 27/1/11 28/1/10
f 8/1/30 9/1/29 27/1/11
f 9/1/29 26/1/12 27/1/11
f 9/1/29 10/1/28 26/1/12
f 10/1/28 25/1/13 26/1/12
f 10/1/28 11/1/27 25/1/13
f 11/1/27 24/1/14 25/1/13
f 11/1/27 12/1/26 24/1/14
f 12/1/26 23/1/15 24/1/14
f 12/1/26 13/1/25 23/1/15
f 13/1/25 22/1/16 23/1/15
f 13/1/25 14/1/24 22/1/16
f 14/1/24 21/1/17 22/1/16
f 14/1/24 15/1/23 21/1/17
f 15/1/23 20/1/18 21/1/17
f 15/1/23 16/1/22 20/1/18
f 16/1/22 19/1/19 20/1/18
f 16/1/22 17/1/21 19/1/19
f 17/1/21 18/1/20 19/1/19
